<svg data-v-423bf9ae="" xmlns="http://www.w3.org/2000/svg" viewBox="0 0 341.95691053019925 60" class="font"><!----><!----><!----><g data-v-423bf9ae="" id="656561e6-0b96-4dc3-a19e-9be745cea5f4" fill="white" transform="matrix(5.385996243345147,0,0,5.385996243345147,-2.1005329457337325,-22.62118367158952)"><path d="M10.26 14.41L10.44 14.59Q10.02 15.01 9.52 15.18Q9.02 15.34 8.34 15.34L8.34 15.34Q7.38 15.34 6.85 15.00Q6.31 14.66 6.19 13.83L6.19 13.83L5.98 12.43Q5.84 11.45 5.59 10.95Q5.35 10.44 4.86 10.44L4.86 10.44L4.23 10.44L4.23 13.66Q4.23 14.20 4.30 14.43Q4.38 14.67 4.58 14.76Q4.77 14.84 5.22 14.87L5.22 14.87L5.22 15.15Q4.41 15.11 2.88 15.11L2.88 15.11Q1.19 15.11 0.39 15.15L0.39 15.15L0.39 14.87Q0.84 14.84 1.04 14.76Q1.25 14.67 1.32 14.43Q1.39 14.20 1.39 13.66L1.39 13.66L1.39 6.72Q1.39 6.19 1.31 5.95Q1.23 5.71 1.04 5.63Q0.84 5.54 0.39 5.52L0.39 5.52L0.39 5.24Q1.19 5.28 2.80 5.28L2.80 5.28L4.41 5.26Q4.69 5.25 5.05 5.25L5.05 5.25Q7.18 5.25 8.22 5.85Q9.27 6.45 9.27 7.69L9.27 7.69Q9.27 8.74 8.48 9.48Q7.70 10.22 5.85 10.39L5.85 10.39Q7.28 10.49 8.01 10.93Q8.74 11.37 8.90 12.22L8.90 12.22L9.20 13.68Q9.30 14.20 9.44 14.39Q9.58 14.59 9.83 14.59L9.83 14.59Q10.08 14.59 10.26 14.41L10.26 14.41ZM4.98 5.52Q4.66 5.52 4.50 5.61Q4.34 5.71 4.28 5.96Q4.23 6.22 4.23 6.72L4.23 6.72L4.23 10.16L4.61 10.16Q5.60 10.16 5.96 9.55Q6.33 8.95 6.33 7.84L6.33 7.84Q6.33 6.69 6.01 6.10Q5.70 5.52 4.98 5.52L4.98 5.52ZM14.13 7.69Q15.85 7.69 16.79 8.59Q17.72 9.49 17.72 11.52L17.72 11.52Q17.72 13.55 16.79 14.45Q15.85 15.34 14.13 15.34L14.13 15.34Q12.40 15.34 11.47 14.45Q10.53 13.55 10.53 11.52L10.53 11.52Q10.53 9.49 11.47 8.59Q12.40 7.69 14.13 7.69L14.13 7.69ZM14.13 7.97Q13.68 7.97 13.41 8.85Q13.15 9.73 13.15 11.52L13.15 11.52Q13.15 13.31 13.41 14.19Q13.68 15.06 14.13 15.06L14.13 15.06Q14.57 15.06 14.84 14.19Q15.11 13.31 15.11 11.52L15.11 11.52Q15.11 9.73 14.84 8.85Q14.57 7.97 14.13 7.97L14.13 7.97ZM28.07 7.94Q28.87 7.94 29.15 7.88L29.15 7.88L29.15 8.18Q28.85 8.29 28.61 8.59Q28.36 8.89 28.15 9.53L28.15 9.53L26.40 15.15Q26.18 15.12 25.73 15.12L25.73 15.12Q25.27 15.12 25.05 15.15L25.05 15.15L23.38 10.30L22.11 15.15Q21.88 15.12 21.43 15.12L21.43 15.12Q20.97 15.12 20.75 15.15L20.75 15.15L18.59 8.96Q18.42 8.47 18.21 8.32Q18.00 8.18 17.78 8.18L17.78 8.18L17.78 7.88Q18.89 7.97 20.27 7.97L20.27 7.97Q20.97 7.97 22.09 7.88L22.09 7.88L22.09 8.18Q21.66 8.18 21.47 8.25Q21.28 8.32 21.28 8.53L21.28 8.53Q21.28 8.57 21.31 8.71L21.31 8.71L22.47 12.59L23.67 7.90L23.69 7.90Q24.14 7.92 24.36 7.92L24.36 7.92Q24.64 7.92 25.17 7.90L25.17 7.90L26.77 13.02L27.37 11.02Q27.59 10.25 27.59 9.67L27.59 9.67Q27.59 8.97 27.29 8.60Q26.98 8.22 26.46 8.18L26.46 8.18L26.46 7.88Q26.98 7.94 28.07 7.94L28.07 7.94ZM34.41 9.95Q35.78 10.02 36.67 10.39Q37.56 10.75 37.97 11.29Q38.37 11.83 38.37 12.43L38.37 12.43Q38.37 13.80 37.28 14.48Q36.19 15.15 34.17 15.15L34.17 15.15Q33.77 15.15 33.49 15.13L33.49 15.13Q32.54 15.11 31.63 15.11L31.63 15.11Q29.99 15.11 29.19 15.15L29.19 15.15L29.19 14.87Q29.64 14.84 29.84 14.76Q30.04 14.67 30.11 14.43Q30.18 14.20 30.18 13.66L30.18 13.66L30.18 6.72Q30.18 6.19 30.11 5.95Q30.03 5.71 29.83 5.63Q29.64 5.54 29.19 5.52L29.19 5.52L29.19 5.24Q29.99 5.28 31.60 5.28L31.60 5.28L33.21 5.26Q33.49 5.25 33.85 5.25L33.85 5.25Q35.70 5.25 36.67 5.84Q37.65 6.44 37.65 7.45L37.65 7.45Q37.65 7.97 37.28 8.49Q36.92 9.02 36.19 9.41Q35.46 9.80 34.41 9.93L34.41 9.93L34.41 9.95ZM33.78 5.52Q33.46 5.52 33.30 5.61Q33.14 5.71 33.08 5.96Q33.03 6.22 33.03 6.72L33.03 6.72L33.03 9.88L33.40 9.88Q34.16 9.88 34.46 9.26Q34.76 8.64 34.76 7.60L34.76 7.60Q34.76 6.54 34.53 6.03Q34.30 5.52 33.78 5.52L33.78 5.52ZM33.94 14.83Q35.43 14.83 35.43 12.38L35.43 12.38Q35.43 11.27 34.90 10.70Q34.37 10.12 33.22 10.12L33.22 10.12L33.03 10.12L33.03 13.66Q33.03 14.17 33.10 14.41Q33.17 14.64 33.36 14.73Q33.54 14.83 33.94 14.83L33.94 14.83ZM42.13 4.20L42.13 13.85Q42.13 14.42 42.30 14.64Q42.48 14.85 42.91 14.85L42.91 14.85L42.91 15.15Q41.40 15.09 40.92 15.09L40.92 15.09Q40.45 15.09 38.82 15.15L38.82 15.15L38.82 14.85Q39.26 14.85 39.43 14.64Q39.61 14.42 39.61 13.85L39.61 13.85L39.61 5.88Q39.61 5.24 39.43 4.94Q39.26 4.65 38.82 4.65L38.82 4.65L38.82 4.35Q39.26 4.40 39.69 4.40L39.69 4.40Q41.15 4.40 42.13 4.20L42.13 4.20ZM45.28 15.25Q44.38 15.25 43.92 14.76Q43.47 14.28 43.47 13.55L43.47 13.55Q43.47 12.92 43.80 12.51Q44.13 12.10 44.58 11.87Q45.02 11.65 45.74 11.41L45.74 11.41Q46.49 11.16 46.84 10.95Q47.19 10.74 47.19 10.36L47.19 10.36L47.19 9.11Q47.19 8.67 46.97 8.32Q46.75 7.97 46.20 7.97L46.20 7.97Q45.77 7.97 45.42 8.20L45.42 8.20Q45.89 8.37 46.12 8.70Q46.35 9.03 46.35 9.44L46.35 9.44Q46.35 9.98 45.97 10.31Q45.58 10.64 45.04 10.64L45.04 10.64Q44.49 10.64 44.18 10.30Q43.86 9.95 43.86 9.42L43.86 9.42Q43.86 9.00 44.07 8.69Q44.28 8.39 44.73 8.13L44.73 8.13Q45.51 7.69 46.97 7.69L46.97 7.69Q47.74 7.69 48.30 7.83Q48.86 7.98 49.25 8.39L49.25 8.39Q49.53 8.68 49.62 9.12Q49.71 9.56 49.71 10.35L49.71 10.35L49.71 14.10Q49.71 14.45 49.76 14.57Q49.81 14.70 49.94 14.70L49.94 14.70Q50.04 14.70 50.15 14.64Q50.26 14.57 50.36 14.49L50.36 14.49L50.50 14.73Q49.90 15.25 48.78 15.25L48.78 15.25Q47.94 15.25 47.60 14.96Q47.26 14.67 47.24 14.18L47.24 14.18Q46.58 15.25 45.28 15.25L45.28 15.25ZM46.68 14.13Q46.97 14.13 47.19 13.89L47.19 13.89L47.19 10.93Q47.07 11.14 46.73 11.48L46.73 11.48Q46.35 11.84 46.16 12.19Q45.96 12.53 45.96 13.12L45.96 13.12Q45.96 14.13 46.68 14.13L46.68 14.13ZM56.85 7.83L53.72 14.94L53.91 14.94Q54.84 14.94 55.53 14.31Q56.22 13.69 56.34 12.26L56.34 12.26L56.62 12.26Q56.62 14.36 56.67 15.20L56.67 15.20Q55.51 15.15 53.93 15.15L53.93 15.15Q52.53 15.15 50.96 15.22L50.96 15.22L54.10 8.11L53.82 8.11Q52.91 8.11 52.25 8.73Q51.59 9.35 51.48 10.78L51.48 10.78L51.20 10.78Q51.20 8.68 51.14 7.84L51.14 7.84Q52.30 7.90 53.89 7.90L53.89 7.90Q55.29 7.90 56.85 7.83L56.85 7.83ZM61.87 13.82Q62.89 13.82 63.56 12.88L63.56 12.88L63.80 12.96Q63.49 13.94 62.75 14.64Q62.02 15.34 60.87 15.34L60.87 15.34Q59.40 15.34 58.52 14.43Q57.64 13.52 57.64 11.52L57.64 11.52Q57.64 9.60 58.62 8.64Q59.61 7.69 61.24 7.69L61.24 7.69Q63.88 7.69 63.88 10.82L63.88 10.82L60.27 10.82Q60.26 10.99 60.26 11.33L60.26 11.33Q60.26 12.67 60.72 13.24Q61.19 13.82 61.87 13.82L61.87 13.82ZM61.14 8.01Q60.35 8.01 60.21 10.56L60.21 10.56L61.84 10.56Q61.85 9.44 61.68 8.72Q61.50 8.01 61.14 8.01L61.14 8.01Z"></path></g><!----><!----></svg>